HIERARCHY
ROOT hip
{
	OFFSET 0.000000 0.000000 0.000000 
	CHANNELS 6 Xposition Yposition Zposition Xrotation Zrotation Yrotation
	JOINT abdomen
	{
		OFFSET 0.000000 3.402643 0.000000 
		CHANNELS 3 Xrotation Zrotation Yrotation
		JOINT chest
		{
			OFFSET 0.000000 8.438565 -0.680529 
			CHANNELS 3 Xrotation Zrotation Yrotation
			JOINT neck
			{
				OFFSET 0.000000 10.207942 -0.272212 
				CHANNELS 3 Xrotation Zrotation Yrotation
				JOINT head
				{
					OFFSET 0.000000 3.130431 0.000000 
					CHANNELS 3 Xrotation Zrotation Yrotation
					End Site
					{
						OFFSET 0.000000 3.130435 0.000000 
					}
				}
			}
			JOINT lCollar
			{
				OFFSET 3.470700 6.669187 -0.816635 
				CHANNELS 3 Yrotation Zrotation Xrotation
				JOINT lShldr
				{
					OFFSET 3.198488 0.000000 0.000000 
					CHANNELS 3 Zrotation Yrotation Xrotation
					JOINT lForeArm
					{
						OFFSET 10.139888 0.000000 0.000000 
						CHANNELS 3 Yrotation Zrotation Xrotation
						JOINT lHand
						{
							OFFSET 8.370511 0.000000 0.000000 
							CHANNELS 3 Zrotation Yrotation Xrotation
							End Site
							{
								OFFSET 4.083176 0.000000 0.000000 
							}
						}
					}
				}
			}
			JOINT rCollar
			{
				OFFSET -3.470700 6.669187 -0.816635 
				CHANNELS 3 Yrotation Zrotation Xrotation
				JOINT rShldr
				{
					OFFSET -3.198488 0.000000 0.000000 
					CHANNELS 3 Zrotation Yrotation Xrotation
					JOINT rForeArm
					{
						OFFSET -10.139888 0.000000 0.000000 
						CHANNELS 3 Yrotation Zrotation Xrotation
						JOINT rHand
						{
							OFFSET -8.370511 0.000000 0.000000 
							CHANNELS 3 Zrotation Yrotation Xrotation
							End Site
							{
								OFFSET -4.083176 0.000000 0.000000 
							}
						}
					}
				}
			}
		}
	}
	JOINT lThigh
	{
		OFFSET 5.308129 -1.633274 1.361059 
		CHANNELS 3 Xrotation Zrotation Yrotation
		JOINT lShin
		{
			OFFSET -2.041588 -20.007561 0.000000 
			CHANNELS 3 Xrotation Zrotation Yrotation
			JOINT lFoot
			{
				OFFSET 0.000000 -19.190928 -1.224953 
				CHANNELS 3 Xrotation Yrotation Zrotation
				End Site
				{
					OFFSET 0.000000 -2.449906 4.627600 
				}
			}
		}
	}
	JOINT rThigh
	{
		OFFSET -5.308129 -1.633274 1.361059 
		CHANNELS 3 Xrotation Zrotation Yrotation
		JOINT rShin
		{
			OFFSET 2.041588 -20.007561 0.000000 
			CHANNELS 3 Xrotation Zrotation Yrotation
			JOINT rFoot
			{
				OFFSET 0.000000 -19.190928 -1.224953 
				CHANNELS 3 Xrotation Yrotation Zrotation
				End Site
				{
					OFFSET 0.000000 -2.449906 4.627600 
				}
			}
		}
	}
}
MOTION
Frames: 20
Frame Time: 0.016667
0.517079 42.670250 -5.387057 5.509000 -1.185900 1.565140 -15.485900 1.784500 -0.837266 11.415200 0.761687 -0.327631 2.527360 -0.487546 -1.388940 9.666620 4.565680 -0.074731 2.000000 -2.000000 0.000000 94.334099 -123.514000 29.114700 37.012100 -0.324018 0.082359 0.048497 -0.034994 -149.518997 -2.000000 2.000000 0.000000 -101.001999 125.386002 14.741900 -37.217201 0.323723 0.082695 -0.061618 -0.037829 -119.666000 -22.541950 2.342014 -1.945766 30.719053 2.540957 2.366860 -15.256310 5.102624 2.133122 -14.570730 -1.970825 1.782340 18.651011 -2.940324 -1.450196 -18.156977 -9.925596 -4.517253 
0.520154 42.540710 -5.575550 5.752690 -0.913346 1.460580 -15.357900 1.686330 -0.876389 11.375900 0.848368 -0.361702 2.465880 -0.347472 -1.337480 9.686700 4.614070 -0.029310 2.000000 -2.000000 0.000000 90.266701 -123.247002 27.504000 36.191799 -0.325185 0.080788 0.047345 -0.029368 -147.468994 -2.000000 2.000000 0.000000 -97.503502 124.966003 14.752700 -36.758202 0.324382 0.081820 -0.062460 -0.040459 -118.680000 -23.322681 2.146005 -1.632897 31.488409 2.507109 2.422460 -15.395028 4.863695 2.076919 -15.848054 -2.272234 1.860242 20.387890 -2.918514 -1.580261 -18.451363 -9.364735 -4.368769 
0.523227 42.411186 -5.764041 5.996480 -0.650717 1.367090 -15.220100 1.578710 -0.912981 11.326900 0.935004 -0.405815 2.394670 -0.207363 -1.286860 9.696890 4.652840 0.014387 2.000000 -2.000000 0.000000 86.179604 -122.911003 25.921101 35.371498 -0.326330 0.079200 0.046395 -0.023705 -145.417999 -2.000000 2.000000 0.000000 -93.956100 124.537003 14.812300 -36.289398 0.325047 0.080921 -0.063347 -0.043075 -117.693001 -24.110163 1.956248 -1.317794 32.170986 2.449326 2.472587 -15.473941 4.641258 2.015117 -17.084305 -2.569832 1.927434 22.027718 -2.856555 -1.703611 -18.677692 -8.785554 -4.210749 
0.540174 42.263020 -5.923910 5.976740 -0.437064 1.360420 -15.081500 1.360400 -0.940325 11.298200 0.684328 -0.414277 2.531120 -0.041844 -1.271710 9.765770 4.681300 0.043181 2.000000 -2.000000 0.000000 83.205597 -123.944000 25.070900 36.709400 -0.324451 0.081781 0.046654 -0.025380 -146.022995 -2.000000 2.000000 0.000000 -91.815697 125.750000 15.844600 -37.724998 0.322986 0.083656 -0.062849 -0.041626 -118.239998 -24.678307 1.824850 -1.042158 32.999893 2.404912 2.542301 -15.663359 4.297594 1.935989 -18.048903 -2.807642 2.076393 23.768595 -2.837894 -1.860846 -19.112951 -8.328641 -4.097747 
0.557124 42.114983 -6.083790 5.966850 -0.233105 1.342780 -14.933300 1.132460 -0.965813 11.259500 0.443318 -0.414367 2.668180 0.113194 -1.265950 9.824960 4.719550 0.061669 2.000000 -2.000000 0.000000 80.289703 -124.947998 24.150801 38.047298 -0.322513 0.084318 0.046931 -0.027053 -146.628998 -2.000000 2.000000 0.000000 -89.762703 126.983002 16.771299 -39.170300 0.320841 0.086357 -0.062357 -0.040147 -118.796997 -25.273714 1.675000 -0.731314 33.914951 2.373031 2.593498 -15.900300 3.981064 1.840268 -18.970461 -3.035997 2.171596 25.407335 -2.813293 -1.959308 -19.476730 -7.899906 -3.978846 
0.571393 42.022587 -6.144116 5.683640 -0.223505 1.423030 -14.893900 1.106120 -1.008100 11.152200 0.337203 -0.426943 2.997240 -0.021682 -1.213440 9.912630 4.670060 0.073665 2.000000 -2.000000 0.000000 81.999298 -126.668999 25.027800 41.045300 -0.317959 0.089833 0.048970 -0.037046 -150.270996 -2.000000 2.000000 0.000000 -90.758598 128.548996 18.586000 -41.123501 0.317837 0.089920 -0.060407 -0.033738 -121.189003 -25.326839 1.678713 -0.660836 34.447556 2.352982 2.655313 -16.105377 3.768264 1.765195 -19.202278 -3.061871 2.153800 26.420549 -2.821594 -2.014702 -19.855021 -7.676462 -3.913907 
0.585661 41.930321 -6.204453 5.400430 -0.213890 1.503180 -14.854400 1.070350 -1.047890 11.035100 0.240777 -0.440776 3.326320 -0.146839 -1.161920 10.000300 4.620570 0.085510 2.000000 -2.000000 0.000000 83.698196 -128.380005 25.954000 44.053200 -0.313107 0.095119 0.061405 -0.056655 -153.914001 -2.000000 2.000000 0.000000 -91.802803 130.106003 20.371799 -43.066799 0.314728 0.093360 -0.058726 -0.027253 -123.582001 -25.386999 1.690615 -0.562189 34.986908 2.343199 2.661256 -16.328672 3.583379 1.716489 -19.394899 -3.086288 2.137757 27.388956 -2.789090 -2.080909 -20.197216 -7.432754 -3.876313 
0.598708 41.849743 -6.181400 4.785160 0.000000 1.582050 -14.775900 1.040810 -1.098450 11.083900 0.288974 -0.468138 4.204240 -0.296954 -1.131460 10.303500 4.568790 0.094792 2.000000 -2.000000 0.000000 87.148903 -131.281998 26.850901 48.828602 -0.304852 0.102968 0.063947 -0.054516 -156.785004 -2.000000 2.000000 0.000000 -93.788696 132.912994 22.320801 -46.933998 0.308205 0.099885 -0.056835 -0.018095 -126.921997 -24.961592 1.531013 -0.233175 35.457874 2.344714 2.691284 -16.571619 3.297042 1.610709 -19.078447 -3.312833 2.117995 28.202906 -2.809378 -2.112337 -20.569937 -7.245986 -3.829047 
0.611754 41.769173 -6.158360 4.169950 0.214275 1.656280 -14.707000 1.007780 -1.158230 11.132600 0.346818 -0.506782 5.091950 -0.447532 -1.105020 10.616300 4.507130 0.093428 2.000000 -2.000000 0.000000 90.480698 -134.145996 27.961000 53.613800 -0.295953 0.110116 0.066856 -0.061980 -159.645996 -2.000000 2.000000 0.000000 84.178200 44.318901 -155.707001 -50.801300 0.301256 0.105954 -0.055477 -0.008815 -130.270996 -24.485519 1.386478 0.099206 35.928169 2.351037 2.713312 -16.904860 3.022743 1.514235 -18.860424 -3.524458 2.101357 29.162958 -2.848557 -2.166517 -21.023033 -7.057965 -3.774718 
0.616451 41.750916 -6.027284 3.584070 0.399608 2.095410 -14.617500 0.911399 -1.331710 11.406100 0.308523 -0.596571 5.867980 -0.545587 -1.170570 10.899700 4.445740 0.059844 2.000000 -2.000000 0.000000 -86.990898 -43.001701 -151.699997 58.115700 -0.287064 0.116142 0.068177 -0.065044 -160.837997 -2.000000 2.000000 0.000000 83.281197 41.622101 -155.046005 -54.355999 0.294521 0.111108 -0.055069 -0.004899 -131.677994 -23.810707 1.143610 0.151328 36.054794 2.353345 2.701824 -17.070686 2.761247 1.417327 -18.125179 -3.826568 1.656137 29.552374 -2.881185 -2.169030 -21.391014 -6.924333 -3.734751 
0.621149 41.732800 -5.896219 2.998200 0.585136 2.530740 -14.537500 0.814936 -1.505490 11.679600 0.260514 -0.675454 6.653790 -0.634284 -1.237030 11.183000 4.384310 0.025671 2.000000 -2.000000 0.000000 -84.551399 -40.158798 -151.197998 62.627499 -0.277708 0.121462 0.069550 -0.068055 -162.018997 -2.000000 2.000000 0.000000 82.375397 38.935101 -154.348999 -57.910702 0.287479 0.115834 -0.054758 -0.010739 -133.084000 -23.194391 0.894203 0.186006 36.239342 2.376306 2.704894 -17.213318 2.499099 1.296042 -17.409885 -4.120169 1.204208 29.892784 -2.926956 -2.204813 -21.727327 -6.772070 -3.712603 
0.616076 41.740391 -5.711074 2.255950 0.526935 2.550140 -14.615700 0.749177 -1.460070 11.826200 0.077220 -0.636858 7.700940 -0.443939 -1.390310 11.536000 4.409170 -0.031535 2.000000 -2.000000 0.000000 -81.993896 -36.066799 -151.076004 68.330597 -0.265332 0.127106 0.070456 -0.069956 -162.770996 -2.000000 2.000000 0.000000 81.897903 34.725700 -154.169006 -62.852100 0.277232 0.121660 -0.054659 -0.009156 -133.649994 -22.150461 0.973654 0.077832 36.218651 2.396526 2.711585 -17.562613 2.476978 1.293505 -16.395758 -3.963324 1.121645 29.885162 -2.985956 -2.161128 -22.045567 -6.721136 -3.684340 
0.611001 41.747963 -5.525918 1.513720 0.458824 2.570800 -14.693800 0.692916 -1.416920 11.972600 -0.106219 -0.599201 8.748720 -0.236977 -1.542720 11.879200 4.443610 -0.087835 2.000000 -2.000000 0.000000 -79.544998 -31.974300 -150.748001 74.033699 -0.252457 0.131492 0.071374 -0.071820 -163.514008 -2.000000 2.000000 0.000000 81.421997 30.525999 -153.949005 -67.803299 0.266499 0.126591 -0.054577 -0.007572 -134.216995 -21.212402 1.037872 -0.000697 36.381542 2.442458 2.703509 -17.970623 2.459980 1.284285 -15.304468 -3.827000 1.027324 29.782623 -3.030340 -2.163382 -22.331276 -6.668095 -3.662344 
0.606244 41.779453 -5.352255 0.937525 0.419866 2.516710 -14.850400 0.631157 -1.333430 12.031200 -0.251101 -0.548297 9.599310 -0.056535 -1.664770 12.124300 4.459780 -0.144306 2.000000 -2.000000 0.000000 -77.968201 -28.897800 -150.593002 77.813004 -0.243711 0.133684 0.071817 -0.072699 -163.865005 -2.000000 2.000000 0.000000 80.792198 27.468201 -153.419006 -71.406799 0.258441 0.129587 -0.054471 -0.004839 -135.192993 -20.336582 1.061784 -0.098501 36.290936 2.473527 2.695457 -18.255119 2.543380 1.317945 -14.374398 -3.709110 0.997428 29.511421 -3.072073 -2.118611 -22.440531 -6.718171 -3.679543 
0.601488 41.810806 -5.178602 0.361336 0.380852 2.453640 -15.016800 0.582330 -1.243030 12.089600 -0.396027 -0.497689 10.450000 0.122169 -1.780930 12.369500 4.475850 -0.190861 2.000000 -2.000000 0.000000 -76.430901 -25.830799 -150.345001 81.582603 -0.234863 0.135291 0.072254 -0.073551 -164.207001 -2.000000 2.000000 0.000000 80.153198 24.420099 -152.863007 -75.010300 0.250211 0.132071 -0.054412 -0.002132 -136.160004 -19.460953 1.092140 -0.206225 36.189251 2.512811 2.670234 -18.527405 2.645139 1.351363 -13.475608 -3.580550 0.958192 29.345337 -3.149880 -2.100661 -22.624195 -6.741271 -3.652438 
0.586898 41.857841 -4.941411 -0.302740 0.341792 2.390770 -15.320500 0.585298 -1.098000 12.099400 -0.434675 -0.423653 11.479400 0.408144 -1.904720 12.664400 4.549070 -0.244195 2.000000 -2.000000 0.000000 -74.747200 -22.207199 -150.078995 85.713402 -0.225068 0.136380 0.072367 -0.073770 -164.294998 -2.000000 2.000000 0.000000 79.163200 20.884399 -152.598007 -79.092300 0.240720 0.134254 -0.054423 -0.002789 -135.925995 -18.322554 1.106986 -0.328760 35.948448 2.567065 2.623301 -18.800846 2.863079 1.441798 -12.263726 -3.410608 1.039842 28.834679 -3.213100 -2.034090 -22.796093 -6.862981 -3.686835 
0.572308 41.904739 -4.704209 -0.966810 0.302691 2.319110 -15.624100 0.601214 -0.945950 12.109100 -0.463665 -0.341298 12.509200 0.709668 -2.013240 12.949700 4.631830 -0.305019 2.000000 -2.000000 0.000000 -73.083603 -18.602900 -149.699005 89.853996 -0.215198 0.136761 0.072493 -0.074012 -164.391998 -2.000000 2.000000 0.000000 78.183502 17.358299 -152.285995 -83.184097 0.231075 0.135758 -0.054436 -0.003472 -135.682007 -17.193687 1.132388 -0.460789 35.699730 2.607723 2.600974 -19.057413 3.063912 1.500524 -11.141947 -3.238363 1.120851 28.431217 -3.291278 -1.998635 -23.005508 -6.968165 -3.702072 
0.557266 41.947533 -4.511717 -1.445330 0.283113 2.356140 -15.771300 0.706633 -0.887082 12.314400 -0.260948 -0.333295 13.108000 0.732953 -2.027810 13.116400 4.639000 -0.319374 2.000000 -2.000000 0.000000 -72.037201 -16.532499 -149.643997 92.383400 -0.208758 0.156165 0.072166 -0.073381 -164.138000 -2.000000 2.000000 0.000000 77.381104 15.053400 -152.164001 -86.143097 0.224045 0.136415 -0.054439 -0.003609 -135.632996 -16.331692 1.111711 -0.581617 35.430088 2.655859 2.561914 -19.228706 3.217501 1.585691 -10.132664 -3.127672 1.094439 27.938343 -3.369094 -1.953215 -23.131748 -7.107588 -3.733174 
0.542222 41.990200 -4.319226 -1.914080 0.273285 2.402980 -15.928300 0.811890 -0.828908 12.519500 -0.058018 -0.314073 13.717100 0.764230 -2.048480 13.283100 4.646120 -0.333681 2.000000 -2.000000 0.000000 -71.010399 -14.471700 -149.541000 94.902901 -0.202330 0.155755 0.071855 -0.072772 -163.893997 -2.000000 2.000000 0.000000 76.588699 12.758100 -152.013000 -89.092300 0.217015 0.136708 -0.054443 -0.003773 -135.574005 -15.540153 1.103173 -0.738101 35.317444 2.713952 2.551921 -19.482758 3.372946 1.608477 -9.190269 -3.023716 1.076797 27.482710 -3.455954 -1.899611 -23.242575 -7.265675 -3.764609 
0.556133 42.042377 -4.082383 -2.470700 0.029270 2.635460 -16.309401 0.799882 -0.751524 12.451000 -0.338382 -0.244777 14.394200 0.906669 -2.177960 13.440300 4.672610 -0.404138 2.000000 -2.000000 0.000000 -69.426903 -12.010400 -149.341003 97.871597 -0.194788 0.154910 0.071657 -0.072382 -163.738007 -2.000000 2.000000 0.000000 75.874199 9.915730 -151.725998 -92.510201 0.209289 0.117072 -0.054402 -0.001121 -136.520996 -14.603625 1.254583 -1.089789 35.037212 2.764203 2.503030 -19.643591 3.482803 1.634645 -7.895133 -2.733004 0.733071 26.581802 -3.544031 -1.818997 -23.231167 -7.452662 -3.790965 
